<?xml version="1.0" encoding="utf-8"?>
<!-- Generator: Adobe Illustrator 23.0.0, SVG Export Plug-In . SVG Version: 6.00 Build 0)  -->
<svg version="1.1" id="Layer_1" xmlns="http://www.w3.org/2000/svg" xmlns:xlink="http://www.w3.org/1999/xlink" x="0px" y="0px"
	 viewBox="0 0 1366 768" style="enable-background:new 0 0 1366 768;" xml:space="preserve">
<style type="text/css">
	.st0{fill:#202A21;}
	.st1{fill:none;stroke:#2A1000;stroke-width:3;stroke-linejoin:round;stroke-miterlimit:10;}
	.st2{fill:#FFFFFF;stroke:#1A221B;stroke-width:4;stroke-linejoin:round;stroke-miterlimit:10;}
	.st3{fill:#2A1000;}
	.st4{fill:#2A1000;stroke:#2A1000;stroke-width:3;stroke-linejoin:round;stroke-miterlimit:10;}
</style>
<g id="iphone">
	<g>
		<g>
			<path class="st0" d="M796.81,399.61c-0.26,40.44-25.7,78.2-64.18,91.83c-38.68,13.7-81.9,1.45-107.95-30.14
				c-25.86-31.35-28.7-77.37-7.91-112.05c20.7-34.52,62-53.33,101.63-45.41C763.81,312.93,796.5,353.5,796.81,399.61
				c0.06,9.65,15.06,9.67,15,0c-0.31-46.8-29.48-89.09-73.32-105.61c-43.78-16.49-95.33-2.41-124.83,33.82
				c-29.77,36.55-34.21,89.08-9.84,129.72c24.19,40.34,71.8,61.36,117.9,52.43c45.2-8.76,81.72-46.91,88.62-92.41
				c0.9-5.96,1.43-11.92,1.47-17.95C811.87,389.95,796.87,389.94,796.81,399.61z"/>
		</g>
	</g>
	<g>
		<g>
			<path class="st0" d="M777.51,399.78c-0.28,31.94-20.7,60.91-50.9,71.62c-30.34,10.76-64.99,1.56-85.79-23.05
				c-20.78-24.59-23.39-60.75-6.51-88.13c16.8-27.25,49.87-41.38,81.22-35.12C751.06,332.2,777.19,363.55,777.51,399.78
				c0.03,3.22,5.03,3.22,5,0c-0.3-34.04-21.94-64.56-53.94-76.21c-32.42-11.81-70.25-1.64-92.11,25.11
				c-21.48,26.29-24.33,64.19-6.46,93.18c17.91,29.05,52.79,43.92,86.2,37.55c37.99-7.25,65.98-41.07,66.32-79.63
				C782.54,396.56,777.54,396.56,777.51,399.78z"/>
		</g>
	</g>
	<path class="st1" d="M700.7,347.13c-0.22,0-0.4-0.18-0.4-0.4c0-0.22,0.18-0.4,0.4-0.4"/>
	<path class="st2" d="M728.23,461.64H673.4c-3.9,0-7.09-3.23-7.09-7.18V346.3c0-3.95,3.19-7.18,6.21-7.18h54.83
		c2.11,0,3.27,0.32,4.28,0.73c2.25,0.92,3.7,3.15,3.7,5.61v104.21C735.33,458.41,732.13,461.64,728.23,461.64z"/>
	<rect x="667.28" y="359.67" class="st3" width="66.43" height="80.21"/>
	<path class="st1" d="M708.82,352.75h-16.63c-2.01,0-2.01-1.33,0-1.33h16.63C710.82,351.42,710.82,352.75,708.82,352.75z"/>
	<ellipse class="st4" cx="701.49" cy="450.62" rx="5.15" ry="5.17"/>
</g>
</svg>
