<?xml version="1.0" standalone="no"?>
<!DOCTYPE svg PUBLIC "-//W3C//DTD SVG 20010904//EN"
 "http://www.w3.org/TR/2001/REC-SVG-20010904/DTD/svg10.dtd">
<svg version="1.0" xmlns="http://www.w3.org/2000/svg"
 width="1280.000000pt" height="1081.000000pt" viewBox="0 0 1280.000000 1081.000000"
 preserveAspectRatio="xMidYMid meet">
<g transform="translate(0.000000,1081.000000) scale(0.100000,-0.100000)"
fill="#000000" stroke="none">
<path d="M12400 10665 c-328 -114 -1283 -445 -3900 -1352 -564 -195 -1191
-413 -1395 -483 -346 -120 -1095 -379 -2910 -1008 -412 -143 -1159 -402 -1660
-575 -500 -174 -1267 -440 -1704 -591 -437 -151 -799 -280 -804 -285 -11 -11
33 -57 793 -836 289 -296 624 -640 744 -764 l219 -226 453 -1119 c249 -615
455 -1121 458 -1123 3 -3 179 111 391 253 l386 259 132 -135 c73 -74 380 -389
682 -700 527 -541 948 -973 1603 -1645 167 -171 308 -310 314 -310 6 0 126
189 267 420 2337 3830 5476 8975 5814 9530 504 825 498 815 484 814 -6 0 -172
-56 -367 -124z"/>
</g>
</svg>
